<?xml version="1.0" encoding="UTF-8" standalone="no"?>
<!DOCTYPE svg PUBLIC "-//W3C//DTD SVG 1.1//EN" "http://www.w3.org/Graphics/SVG/1.1/DTD/svg11.dtd">
<svg width="100%" height="100%" viewBox="0 0 107 107" version="1.1" xmlns="http://www.w3.org/2000/svg" xmlns:xlink="http://www.w3.org/1999/xlink" xml:space="preserve" xmlns:serif="http://www.serif.com/" style="fill-rule:evenodd;clip-rule:evenodd;stroke-linejoin:round;stroke-miterlimit:2;">
    <g>
        <path d="M23.634,99.246C24.856,100.468 26.294,101.427 27.924,102.122C29.579,102.817 31.328,103.152 33.173,103.152L73.85,103.152C75.67,103.152 77.421,102.817 79.075,102.122C80.705,101.427 82.143,100.467 83.318,99.246C84.516,98.023 85.475,96.585 86.194,94.931C86.913,93.301 87.272,91.551 87.272,89.706L87.272,59.24L50.334,59.24L66.947,70.218L66.923,83.591L39.934,83.591L39.934,42.245L87.272,42.245L87.272,23.112L80.25,27.721L43.841,3.848L43.841,22.735L33.174,22.735C31.329,22.735 29.579,23.095 27.925,23.814C26.295,24.557 24.858,25.491 23.634,26.69C22.409,27.889 21.453,29.302 20.758,30.933C20.063,32.586 19.728,34.336 19.728,36.158L19.728,89.705C19.728,91.55 20.063,93.3 20.758,94.93C21.453,96.584 22.412,98.022 23.634,99.246ZM57.671,25.539C57.676,25.539 57.681,25.539 57.686,25.539C59.689,25.539 61.338,27.188 61.338,29.192C61.338,29.197 61.338,29.202 61.338,29.207C61.338,31.244 59.708,32.898 57.671,32.898C55.646,32.897 53.98,31.231 53.979,29.207C53.979,27.169 55.633,25.539 57.671,25.539Z" style="fill-rule:nonzero;"/>
    </g>
</svg>
