<?xml version="1.0" encoding="UTF-8" standalone="no"?>
<!DOCTYPE svg PUBLIC "-//W3C//DTD SVG 1.1//EN" "http://www.w3.org/Graphics/SVG/1.1/DTD/svg11.dtd">
<svg viewBox="0 0 2040.55 3000" version="1.1" xmlns="http://www.w3.org/2000/svg" xmlns:xlink="http://www.w3.org/1999/xlink" xml:space="preserve" xmlns:serif="http://www.serif.com/">
  <path xmlns="http://www.w3.org/2000/svg" fill="#fff" d="M1146.27,655.32a110.33,110.33,0,0,1,110.79,110.79c0,61.55-49.24,111.51-110.79,111.51a111.56,111.56,0,0,1-111.51-111.51C1034.76,704.56,1084.72,655.32,1146.27,655.32ZM118,2882c36.93,36.93,80.38,65.89,129.62,86.89,50,21,102.82,31.14,158.58,31.14H1635.05c55,0,107.89-10.14,157.85-31.14,49.24-21,92.69-50,128.17-86.89q54.32-55.39,86.89-130.34c21.73-49.24,32.59-102.1,32.59-157.86V1673.42H924.63l501.87,331.65-.72,404H610.43V1160H2040.55V582L1828.39,721.21,728.46,0V570.6H406.23q-83.64,0-158.58,32.58C198.41,625.63,155,653.87,118,690.08S52.13,769,31.14,818.25C10.14,868.21,0,921.07,0,976.1V2593.77c0,55.76,10.14,108.62,31.14,157.86Q62.63,2826.57,118,2882Z"/>
</svg>
